<svg width="64px" height="64px" viewBox="0 0 64 64" fill="none" xmlns="http://www.w3.org/2000/svg"><path fill-rule="evenodd" clip-rule="evenodd" d="M11.271 11.271C12.078 10.465 13.385 10.465 14.191 11.271L32 29.08L49.809 11.271C50.615 10.465 51.922 10.465 52.729 11.271C53.535 12.078 53.535 13.385 52.729 14.191L34.92 32L52.729 49.809C53.535 50.615 53.535 51.922 52.729 52.729C51.922 53.535 50.615 53.535 49.809 52.729L32 34.92L14.191 52.729C13.385 53.535 12.078 53.535 11.271 52.729C10.465 51.922 10.465 50.615 11.271 49.809L29.08 32L11.271 14.191C10.465 13.385 10.465 12.078 11.271 11.271Z" fill="#030D45"/></svg>